<svg id="logo" width="91" height="46" viewBox="0 0 91 46" fill="none" xmlns="http://www.w3.org/2000/svg">
<path fill-rule="evenodd" clip-rule="evenodd" d="M0 0H7.58331H7.58333C15.4964 1.00136e-05 22.4659 4.04007 26.5417 10.17C30.6174 4.04007 37.5869 0 45.5 0C53.4131 0 60.3826 4.04006 64.4583 10.17C68.5341 4.04006 75.5036 0 83.4167 0H91V18.8067H83.4167V7.58338C75.0404 7.58338 68.25 14.3737 68.25 22.75C68.25 31.1264 75.0404 37.9167 83.4167 37.9167L83.4167 45.5C75.5036 45.5 68.5341 41.4599 64.4583 35.33C60.3826 41.4599 53.4131 45.5 45.5 45.5C37.5869 45.5 30.6174 41.4599 26.5417 35.33C22.4659 41.4599 15.4964 45.5 7.58333 45.5H0V0ZM83.4167 45.5H91V26.39H83.4167V45.5ZM7.58331 37.9167L7.58333 7.58338H7.58346C15.9436 7.58338 22.724 14.3476 22.75 22.7016L22.75 22.75L22.75 22.7984C22.724 31.1525 15.9436 37.9167 7.58346 37.9167H7.58331ZM45.5 37.9167C53.8763 37.9167 60.6666 31.1264 60.6666 22.75C60.6666 14.3737 53.8763 7.58338 45.5 7.58338C37.1237 7.58338 30.3333 14.3737 30.3333 22.75C30.3333 31.1264 37.1237 37.9167 45.5 37.9167Z" fill="#2322FF"/>
</svg>
